<?xml version="1.0" encoding="utf-8"?>
<!-- Generator: Adobe Illustrator 19.0.1, SVG Export Plug-In . SVG Version: 6.00 Build 0)  -->
<svg version="1.1" id="Layer_1" xmlns="http://www.w3.org/2000/svg" xmlns:xlink="http://www.w3.org/1999/xlink" x="0px" y="0px"
	 viewBox="0 0 183.5 119.2" style="enable-background:new 0 0 183.5 119.2;" xml:space="preserve">
<g>
	<g>
		<g>
			<g>
				<path d="M40.1,68c-0.5,0-1-0.4-1-1V24c0-0.6,0.2-1,0.4-1c0.2,0,5.1,0.4,5.1,1v43c0,0.6-0.4,1-1,1H40.1z"/>
			</g>
			<g>
				<path d="M69.2,32.7c0-0.5-0.3-1.3-0.7-1.7l-2-2.1c-0.4-0.4-1.1-0.7-1.7-0.7h-1.9c-0.5,0-1.3,0.3-1.7,0.7l-2,2.1
					c-0.4,0.4-0.7,1.2-0.7,1.7V58c0,0.6,0.3,1.3,0.7,1.7l2.1,2.3c0.4,0.4,1.1,0.7,1.7,0.7h1.8c0.5,0,1.3-0.3,1.7-0.7l2.1-2.4
					c0.4-0.4,0.7-1.2,0.7-1.7v-3c0-0.5,0.4-1,1-1l3.5,0c0.5,0,1,0.4,1,1v5.1c0,0.6-0.3,1.3-0.7,1.7l-5.2,5.8
					c-0.4,0.4-1.1,0.7-1.7,0.7h-6.6c-0.5,0-1.3-0.3-1.7-0.7l-5.1-5.8c-0.4-0.4-0.7-1.2-0.7-1.7V30.5c0-0.6,0.3-1.3,0.7-1.7l5.2-5.4
					c0.4-0.4,1.1-0.7,1.7-0.7h6.5c0.5,0,1.3,0.3,1.7,0.7l5.2,5.4c0.4,0.4,0.7,1.2,0.7,1.7v4.8c0,0.6-0.5,1-1,1h-3.5
					c-0.6,0-1-0.4-1-1V32.7z"/>
			</g>
			<g>
				<path d="M94.9,67c0,0.6-0.5,1-1,1h-3.5c-0.6,0-1-0.4-1-1V52.3c0-0.5-0.2-1.4-0.3-1.9L79.5,24c-0.2-0.5,0.1-0.9,0.7-0.9H84
					c0.5,0,1.1,0.4,1.3,0.9l3,8.6c0.2,0.5,0.5,1.4,0.6,1.9l3,9.6c0.2,0.5,0.4,0.5,0.6,0l3-9.8c0.2-0.5,0.4-1.4,0.6-1.9l3-8.4
					c0.2-0.5,0.8-0.9,1.3-0.9h3.8c0.5,0,0.8,0.4,0.7,0.9l-9.6,26.4c-0.2,0.5-0.3,1.4-0.3,1.9V67z"/>
			</g>
			<g>
				<path d="M126.4,32.7c0-0.5-0.3-1.3-0.7-1.7l-2-2.1c-0.4-0.4-1.1-0.7-1.7-0.7h-1.9c-0.6,0-1.3,0.3-1.7,0.7l-2,2.1
					c-0.4,0.4-0.7,1.2-0.7,1.7V58c0,0.6,0.3,1.3,0.7,1.7l2.1,2.3c0.4,0.4,1.1,0.7,1.7,0.7h1.8c0.5,0,1.3-0.3,1.7-0.7l2.1-2.4
					c0.4-0.4,0.7-1.2,0.7-1.7v-3c0-0.5,0.4-1,1-1l3.5,0c0.5,0,1,0.4,1,1v5.1c0,0.6-0.3,1.3-0.7,1.7l-5.2,5.8
					c-0.4,0.4-1.1,0.7-1.7,0.7h-6.6c-0.6,0-1.3-0.3-1.7-0.7l-5.1-5.8c-0.4-0.4-0.7-1.2-0.7-1.7V30.5c0-0.6,0.3-1.3,0.7-1.7l5.2-5.4
					c0.4-0.4,1.1-0.7,1.7-0.7h6.5c0.5,0,1.3,0.3,1.7,0.7l5.2,5.4c0.4,0.4,0.7,1.2,0.7,1.7v4.8c0,0.6-0.4,1-1,1h-3.5
					c-0.6,0-1-0.4-1-1V32.7z"/>
			</g>
			<g>
				<path d="M143.9,23.1c0.6,0,1,0.4,1,1v37.7c0,0.6,0.4,1,1,1h11.6c0.6,0,1,0.5,1,1V67c0,0.6-0.4,1-1,1h-17c-0.6,0-1-0.4-1-1V24.1
					c0-0.6,0.4-1,1-1H143.9z"/>
			</g>
			<g>
				<path d="M179.6,43.1c0.6,0,1,0.5,1,1v3.5c0,0.6-0.4,1-1,1h-8.9c-0.6,0-1,0.5-1,1v12c0,0.6,0.4,1,1,1h11.8c0.6,0,1,0.5,1,1V67
					c0,0.6-0.4,1-1,1h-17.3c-0.6,0-1-0.4-1-1V24.1c0-0.6,0.4-1,1-1h16.4c0.6,0,1,0.4,1,1v3.5c0,0.5-0.4,1-1,1h-11c-0.6,0-1,0.4-1,1
					v12.5c0,0.6,0.4,1,1,1H179.6z"/>
			</g>
			<g>
				<path d="M1.8,23.1c0.5,0,1.5,0,2,0h18c0.5,0,1.3,0.3,1.7,0.7l5.3,5.4c0.4,0.4,0.7,1.2,0.7,1.7v9c0,0.6-0.3,1.3-0.6,1.8l-2,2.4
					c-0.4,0.4-0.3,1.1,0.1,1.5l3.1,3c0.4,0.4,0.7,1.2,0.7,1.7v10c0,0.6-0.3,1.3-0.7,1.7l-5.3,5.3c-0.4,0.4-1.2,0.7-1.7,0.7H10.6
					c-0.6,0-1-0.4-1-1V31.4c0-0.6,0.4-1.2,0.9-1.5l0.6-0.3c0.5-0.3,0.9-0.6,0.9-0.7s-0.4-0.4-0.9-0.6L0.4,23.5
					c-0.5-0.2-0.5-0.4,0.1-0.4H1.8z M19.9,42.4c0.5,0,1.3-0.3,1.6-0.8l1.9-2.2c0.4-0.4,0.6-1.2,0.6-1.8v-4.5c0-0.5-0.3-1.3-0.7-1.7
					l-2.1-2.1c-0.4-0.4-1.2-0.7-1.7-0.7h-3.4c-0.6,0-1,0.4-1,1v11.8c0,0.6,0.4,1,1,1H19.9z M15.2,61.4c0,0.6,0.4,1,1,1h4.6
					c0.5,0,1.3-0.3,1.7-0.7l2.1-2.1c0.4-0.4,0.7-1.2,0.7-1.7v-5.2c0-0.5-0.3-1.3-0.7-1.7l-2.4-2.4c-0.4-0.4-1.2-0.7-1.7-0.7h-4.2
					c-0.6,0-1,0.5-1,1V61.4z"/>
			</g>
		</g>
		<g>
			<g>
				<g>
					<path d="M56.1,78.8c0-0.2-0.1-0.5-0.3-0.7c-0.2-0.2-0.4-0.3-0.6-0.3c-0.2,0-0.5,0.1-0.6,0.3c-0.2,0.2-0.3,0.6-0.3,0.9v3.6
						c0,0.3,0.1,0.7,0.3,0.9c0.2,0.2,0.4,0.3,0.6,0.3c0.2,0,0.5-0.1,0.6-0.3c0.2-0.2,0.3-0.5,0.3-0.8s0.2-0.4,0.5-0.4
						c0.3,0,0.5,0.2,0.5,0.5V83c0,0.3-0.2,0.7-0.4,0.9l-0.4,0.4c-0.2,0.2-0.6,0.4-0.9,0.4H55c-0.3,0-0.7-0.2-0.9-0.4l-0.4-0.4
						c-0.2-0.2-0.4-0.7-0.4-1v-4.4c0-0.3,0.2-0.7,0.4-0.9l0.4-0.4c0.2-0.2,0.6-0.4,0.9-0.4h0.4c0.3,0,0.7,0.2,0.9,0.4l0.4,0.4
						c0.2,0.2,0.4,0.6,0.4,0.9v0.1c0,0.3-0.2,0.5-0.5,0.5S56.1,79,56.1,78.8z"/>
				</g>
				<g>
					<path d="M67.4,82.9c0,0.3-0.2,0.7-0.4,0.9l-0.4,0.4c-0.2,0.2-0.6,0.4-0.9,0.4h-0.4c-0.3,0-0.7-0.2-0.9-0.4L64,83.9
						c-0.2-0.2-0.4-0.6-0.4-0.9v-4.4c0-0.3,0.2-0.7,0.4-0.9l0.4-0.4c0.2-0.2,0.6-0.4,0.9-0.4h0.4c0.3,0,0.7,0.2,0.9,0.4l0.4,0.4
						c0.2,0.2,0.4,0.6,0.4,0.9V82.9z M66.2,83.5c0.2-0.2,0.3-0.6,0.3-0.9v-3.6c0-0.3-0.1-0.7-0.3-0.9c-0.2-0.2-0.5-0.3-0.7-0.3
						s-0.5,0.1-0.7,0.3c-0.2,0.2-0.3,0.6-0.3,0.9v3.6c0,0.3,0.1,0.7,0.3,0.9c0.2,0.2,0.5,0.3,0.7,0.3S66,83.6,66.2,83.5z"/>
				</g>
				<g>
					<path d="M74.6,77.5c0-0.3,0.3-0.5,0.6-0.5H76c0.3,0,0.6,0.2,0.6,0.5l1,6.7c0,0.3-0.1,0.5-0.4,0.5s-0.5-0.2-0.6-0.5l-0.1-0.9
						c0-0.3-0.3-0.5-0.6-0.5h-0.5c-0.3,0-0.6,0.2-0.6,0.5l-0.1,0.9c0,0.3-0.3,0.5-0.6,0.5c-0.3,0-0.4-0.2-0.4-0.5L74.6,77.5z
						 M75.8,78.4c0-0.3-0.1-0.5-0.2-0.5s-0.1,0.2-0.2,0.5L75,81.2c0,0.3,0.2,0.5,0.5,0.5h0.3c0.3,0,0.5-0.2,0.5-0.5L75.8,78.4z"/>
				</g>
				<g>
					<path d="M84.3,76.9c0.3,0,0.5,0.2,0.5,0.5v5.8c0,0.3,0.2,0.5,0.5,0.5h1.3c0.3,0,0.5,0.2,0.5,0.5c0,0.2-0.2,0.5-0.5,0.5h-2.2
						c-0.3,0-0.5-0.2-0.5-0.5v-6.7C83.9,77.2,84.1,76.9,84.3,76.9z"/>
				</g>
				<g>
					<path d="M93.8,84.7c-0.3,0-0.5-0.2-0.5-0.5v-6.7c0-0.3,0-0.5,0.1-0.5s0.9,0.2,0.9,0.5v6.7C94.2,84.5,94,84.7,93.8,84.7z"/>
				</g>
				<g>
					<path d="M101.7,78.3c0-0.3-0.2-0.5-0.5-0.5h-0.3c-0.3,0-0.5-0.2-0.5-0.4s0.2-0.4,0.5-0.4h2.6c0.3,0,0.5,0.2,0.5,0.4
						s-0.2,0.4-0.5,0.4h-0.3c-0.3,0-0.5,0.2-0.5,0.5v5.8c0,0.3-0.2,0.5-0.5,0.5c-0.3,0-0.5-0.2-0.5-0.5V78.3z"/>
				</g>
				<g>
					<path d="M110.6,84.7c-0.3,0-0.5-0.2-0.5-0.5v-6.7c0-0.3,0-0.5,0.1-0.5s0.9,0.2,0.9,0.5v6.7C111.1,84.5,110.9,84.7,110.6,84.7z"
						/>
				</g>
				<g>
					<path d="M121.6,82.9c0,0.3-0.2,0.7-0.4,0.9l-0.4,0.4c-0.2,0.2-0.6,0.4-0.9,0.4h-0.4c-0.3,0-0.7-0.2-0.9-0.4l-0.4-0.4
						c-0.2-0.2-0.4-0.6-0.4-0.9v-4.4c0-0.3,0.2-0.7,0.4-0.9l0.4-0.4c0.2-0.2,0.6-0.4,0.9-0.4h0.4c0.3,0,0.7,0.2,0.9,0.4l0.4,0.4
						c0.2,0.2,0.4,0.6,0.4,0.9V82.9z M120.3,83.5c0.2-0.2,0.3-0.6,0.3-0.9v-3.6c0-0.3-0.1-0.7-0.3-0.9c-0.2-0.2-0.5-0.3-0.7-0.3
						s-0.5,0.1-0.7,0.3c-0.2,0.2-0.3,0.6-0.3,0.9v3.6c0,0.3,0.1,0.7,0.3,0.9s0.5,0.3,0.7,0.3S120.1,83.6,120.3,83.5z"/>
				</g>
				<g>
					<path d="M128.2,77.5c0-0.3,0.2-0.5,0.5-0.5h0.2c0.3,0,0.6,0.2,0.7,0.5l0.6,1.7c0.1,0.3,0.2,0.8,0.3,1l0.5,1.8
						c0.1,0.3,0.2,0.5,0.2,0.5s0-0.2,0-0.5l-0.1-1.9c0-0.3,0-0.8,0-1.1v-1.6c0-0.3,0.2-0.5,0.5-0.5s0.5,0.2,0.5,0.5v6.6
						c0,0.3-0.2,0.5-0.5,0.5s-0.6-0.2-0.7-0.5l-0.9-2.8c-0.1-0.3-0.2-0.8-0.3-1l-0.4-1.2c-0.1-0.3-0.2-0.5-0.2-0.5s0,0.2,0,0.5
						l0.1,1.3c0,0.3,0,0.8,0,1.1v2.6c0,0.3-0.2,0.5-0.5,0.5c-0.3,0-0.5-0.2-0.5-0.5V77.5z"/>
				</g>
			</g>
			<g>
				<g>
					<path d="M55.7,2.7c0-0.6-0.4-1-1-1h-0.5c-0.5,0-1-0.4-1-0.8s0.5-0.8,1-0.8H59c0.6,0,1,0.4,1,0.8s-0.4,0.8-1,0.8h-0.5
						c-0.5,0-1,0.4-1,1v10.7c0,0.6-0.4,1-0.9,1c-0.5,0-0.9-0.4-0.9-1V2.7z"/>
				</g>
				<g>
					<path d="M74.5,11.2c0,0.6-0.3,1.3-0.7,1.7L73,13.7c-0.4,0.4-1.1,0.7-1.7,0.7h-0.7c-0.6,0-1.3-0.3-1.7-0.7l-0.8-0.8
						c-0.4-0.4-0.7-1.2-0.7-1.7v-8c0-0.6,0.3-1.3,0.7-1.7l0.7-0.7C69.3,0.3,70.1,0,70.6,0h0.7c0.5,0,1.3,0.3,1.7,0.7l0.7,0.7
						c0.4,0.4,0.7,1.2,0.7,1.7V11.2z M72.2,12.1c0.3-0.3,0.6-1.1,0.6-1.6V3.8c0-0.6-0.3-1.3-0.6-1.6C71.9,2,71.3,1.7,71,1.7
						c-0.4,0-0.9,0.3-1.2,0.6c-0.3,0.3-0.6,1-0.6,1.6v6.7c0,0.6,0.3,1.3,0.6,1.6c0.3,0.3,0.9,0.6,1.2,0.6
						C71.3,12.8,71.8,12.5,72.2,12.1z"/>
				</g>
				<g>
					<path d="M83.6,0.2c0.5,0,0.9,0.4,0.9,1v10.6c0,0.6,0.4,1,1,1h2.3c0.5,0,1,0.4,1,0.8s-0.5,0.8-1,0.8h-4c-0.6,0-1-0.4-1-1V1.2
						C82.7,0.6,83.1,0.2,83.6,0.2z"/>
				</g>
				<g>
					<path d="M100.4,6.5c0.5,0,1,0.4,1,0.9s-0.5,0.9-1,0.9H99c-0.6,0-1,0.4-1,1v2.4c0,0.6,0.4,1,1,1h2.4c0.5,0,1,0.4,1,0.9
						s-0.5,0.9-1,0.9h-4.1c-0.6,0-1-0.4-1-1V1.2c0-0.6,0.4-1,1-1h3.8c0.5,0,1,0.4,1,0.9s-0.5,0.9-1,0.9H99c-0.6,0-1,0.4-1,1v2.6
						c0,0.6,0.4,1,1,1H100.4z"/>
				</g>
				<g>
					<path d="M109.8,1.2c0-0.6,0.4-1,1-1h2.5c0.5,0,1.3,0.3,1.7,0.7l0.7,0.7c0.4,0.4,0.7,1.2,0.7,1.7v7.9c0,0.6-0.3,1.3-0.7,1.7
						l-0.7,0.7c-0.4,0.4-1.2,0.7-1.7,0.7h-2.5c-0.6,0-1-0.4-1-1V1.2z M112.6,12.7c0.5,0,1.3-0.3,1.6-0.6c0.3-0.3,0.6-1,0.6-1.6V4.1
						c0-0.5-0.3-1.2-0.6-1.6c-0.3-0.3-1-0.6-1.6-0.6h-0.1c-0.6,0-1,0.4-1,1v8.7C111.5,12.2,111.9,12.7,112.6,12.7L112.6,12.7z"/>
				</g>
				<g>
					<path d="M131.8,11.2c0,0.6-0.3,1.3-0.7,1.7l-0.8,0.8c-0.4,0.4-1.1,0.7-1.7,0.7h-0.7c-0.6,0-1.3-0.3-1.7-0.7l-0.8-0.8
						c-0.4-0.4-0.7-1.2-0.7-1.7v-8c0-0.6,0.3-1.3,0.7-1.7l0.7-0.7c0.4-0.4,1.2-0.7,1.7-0.7h0.7c0.6,0,1.3,0.3,1.7,0.7l0.7,0.7
						c0.4,0.4,0.7,1.2,0.7,1.7V11.2z M129.5,12.1c0.3-0.3,0.6-1.1,0.6-1.6V3.8c0-0.6-0.3-1.3-0.6-1.6s-0.9-0.6-1.2-0.6
						s-0.9,0.3-1.2,0.6c-0.3,0.3-0.6,1-0.6,1.6v6.7c0,0.6,0.3,1.3,0.6,1.6c0.3,0.3,0.9,0.6,1.2,0.6
						C128.6,12.8,129.2,12.5,129.5,12.1z"/>
				</g>
			</g>
		</g>
	</g>
	<path d="M104.5,106c-0.1-0.1-0.2-0.1-0.3-0.2c-0.4-0.3-0.7-0.8-0.8-1.3c-0.1-0.5,0.1-1,0.3-1.5c0.1-0.1,0.1-0.2,0.2-0.3
		c-0.1-0.2-0.1-0.5-0.2-0.7c-0.1,0-0.2-0.1-0.3-0.1c-0.5-0.2-0.9-0.5-1.1-1c-0.2-0.5-0.3-1-0.1-1.5c0-0.1,0.1-0.2,0.1-0.3
		c-0.1-0.2-0.3-0.4-0.5-0.6c-0.1,0-0.2,0-0.3,0c-0.5,0-1-0.2-1.4-0.6c-0.4-0.4-0.6-0.8-0.6-1.4c0-0.1,0-0.2,0-0.3
		c-0.2-0.2-0.4-0.3-0.6-0.5c-0.1,0-0.2,0.1-0.3,0.1c-0.5,0.1-1,0.1-1.5-0.1c-0.5-0.2-0.8-0.6-1-1.1c0-0.1-0.1-0.2-0.1-0.3
		c-0.2-0.1-0.5-0.2-0.7-0.2c-0.1,0.1-0.2,0.1-0.3,0.2c-0.4,0.3-0.9,0.4-1.5,0.3c-0.5-0.1-0.9-0.4-1.3-0.8c-0.1-0.1-0.1-0.2-0.2-0.3
		c-0.1,0-0.3,0-0.4,0c-0.1,0-0.3,0-0.4,0c-0.1,0.1-0.1,0.2-0.2,0.3c-0.3,0.4-0.8,0.7-1.3,0.8c-0.5,0.1-1-0.1-1.5-0.3
		c-0.1-0.1-0.2-0.1-0.3-0.2c-0.2,0.1-0.5,0.1-0.7,0.2c0,0.1-0.1,0.2-0.1,0.3c-0.2,0.5-0.5,0.9-1,1.1c-0.5,0.2-1,0.3-1.5,0.1
		c-0.1,0-0.2-0.1-0.3-0.1c-0.2,0.1-0.4,0.3-0.6,0.5c0,0.1,0,0.2,0,0.3c0,0.5-0.2,1-0.6,1.4c-0.4,0.4-0.8,0.6-1.4,0.6
		c-0.1,0-0.2,0-0.3,0c-0.2,0.2-0.3,0.4-0.5,0.6c0,0.1,0.1,0.2,0.1,0.3c0.1,0.5,0.1,1-0.1,1.5c-0.2,0.5-0.6,0.8-1.1,1
		c-0.1,0-0.2,0.1-0.3,0.1c-0.1,0.2-0.2,0.5-0.2,0.7c0.1,0.1,0.1,0.2,0.2,0.3c0.3,0.4,0.4,0.9,0.3,1.5c-0.1,0.5-0.4,0.9-0.8,1.3
		c-0.1,0.1-0.2,0.1-0.3,0.2c0,0.1,0,0.3,0,0.4c0,0.1,0,0.3,0,0.4c0.1,0.1,0.2,0.1,0.3,0.2c0.4,0.3,0.7,0.8,0.8,1.3
		c0.1,0.5-0.1,1-0.3,1.5c-0.1,0.1-0.1,0.2-0.2,0.3c0.1,0.2,0.1,0.5,0.2,0.7c0.1,0,0.2,0.1,0.3,0.1c0.5,0.2,0.9,0.5,1.1,1
		c0.2,0.5,0.3,1,0.1,1.5c0,0.1-0.1,0.2-0.1,0.3c0.1,0.2,0.3,0.4,0.5,0.6c0.1,0,0.2,0,0.3,0c0.5,0,1,0.2,1.4,0.6
		c0.4,0.4,0.6,0.8,0.6,1.4c0,0.1,0,0.2,0,0.3c0.2,0.2,0.4,0.3,0.6,0.5c0.1,0,0.2-0.1,0.3-0.1c0.5-0.1,1-0.1,1.5,0.1
		c0.5,0.2,0.8,0.6,1,1.1c0,0.1,0.1,0.2,0.1,0.3c0.2,0.1,0.5,0.2,0.7,0.2c0.1-0.1,0.2-0.1,0.3-0.2c0.4-0.3,0.9-0.4,1.5-0.3
		c0.5,0.1,0.9,0.4,1.3,0.8c0.1,0.1,0.1,0.2,0.2,0.3c0.1,0,0.3,0,0.4,0c0.1,0,0.3,0,0.4,0c0.1-0.1,0.1-0.2,0.2-0.3
		c0.3-0.4,0.8-0.7,1.3-0.8c0.5-0.1,1,0.1,1.5,0.3c0.1,0.1,0.2,0.1,0.3,0.2c0.2-0.1,0.5-0.1,0.7-0.2c0-0.1,0.1-0.2,0.1-0.3
		c0.2-0.5,0.5-0.9,1-1.1c0.5-0.2,1-0.3,1.5-0.1c0.1,0,0.2,0.1,0.3,0.1c0.2-0.1,0.4-0.3,0.6-0.5c0-0.1,0-0.2,0-0.3
		c0-0.5,0.2-1,0.6-1.4c0.4-0.4,0.8-0.6,1.4-0.6c0.1,0,0.2,0,0.3,0c0.2-0.2,0.3-0.4,0.5-0.6c0-0.1-0.1-0.2-0.1-0.3
		c-0.1-0.5-0.1-1,0.1-1.5c0.2-0.5,0.6-0.8,1.1-1c0.1,0,0.2-0.1,0.3-0.1c0.1-0.2,0.2-0.5,0.2-0.7c-0.1-0.1-0.1-0.2-0.2-0.3
		c-0.3-0.4-0.4-0.9-0.3-1.5c0.1-0.5,0.4-0.9,0.8-1.3c0.1-0.1,0.2-0.1,0.3-0.2c0-0.1,0-0.3,0-0.4C104.5,106.3,104.5,106.2,104.5,106z
		 M94.4,97.6l-0.8,1.1c-1.2-0.3-2.5-0.3-3.8,0l-0.8-1.1C90.8,97.1,92.7,97.1,94.4,97.6z M91.8,110.9c-2.5,0-4.5-2-4.5-4.5
		c0-2.5,2-4.5,4.5-4.5c2.5,0,4.5,2,4.5,4.5C96.2,108.9,94.2,110.9,91.8,110.9z M86.7,98.8c0.2-0.2,0.5-0.3,0.7-0.4l0.2,1.4
		c-0.1,0.1-0.2,0.1-0.3,0.2c-1,0.7-1.8,1.5-2.4,2.5l-1.3-0.3C84.4,100.8,85.4,99.6,86.7,98.8z M83,103.8l1.1,0.8
		c-0.3,1.2-0.3,2.5,0,3.8l-1.1,0.8C82.4,107.3,82.5,105.5,83,103.8z M84.1,111.5c-0.2-0.2-0.3-0.5-0.4-0.7l1.4-0.2
		c0.1,0.1,0.1,0.2,0.2,0.3c0.7,1,1.5,1.8,2.5,2.4l-0.3,1.3C86.1,113.8,85,112.8,84.1,111.5z M89.1,115.2l0.8-1.1
		c1.2,0.3,2.5,0.3,3.8,0l0.8,1.1C92.7,115.7,90.8,115.7,89.1,115.2z M96.8,114.1c-0.2,0.2-0.5,0.3-0.7,0.4l-0.2-1.4
		c0.1-0.1,0.2-0.1,0.3-0.2c1-0.7,1.8-1.5,2.4-2.5l1.3,0.3C99.2,112.1,98.1,113.2,96.8,114.1z M100.5,109.1l-1.1-0.8
		c0.3-1.2,0.3-2.5,0-3.8l1.1-0.8C101.1,105.5,101.1,107.4,100.5,109.1z M99.8,102.1l-1.4,0.2c-0.1-0.1-0.1-0.2-0.2-0.3
		c-0.7-1-1.5-1.8-2.5-2.4l0.3-1.3c1.3,0.7,2.5,1.7,3.3,3C99.6,101.6,99.7,101.8,99.8,102.1z"/>
</g>
</svg>
